<svg width="46" height="46" viewBox="0 0 46 46" fill="none" xmlns="http://www.w3.org/2000/svg">
<g clip-path="url(#clip0)">
<path d="M28.2027 18.727L21.2912 25.2551L17.9742 21.8426C17.6064 21.464 17.0009 21.4554 16.6227 21.8231C16.2441 22.1912 16.2355 22.7964 16.6032 23.175L20.5816 27.2589C20.9512 27.6307 21.5484 27.6435 21.9334 27.2873L29.5354 20.1171C29.72 19.9429 29.8279 19.7025 29.835 19.449C29.8421 19.1955 29.7481 18.9495 29.5736 18.7652C29.2036 18.3807 28.5936 18.3638 28.2027 18.727Z" fill="#E9B500"/>
<path d="M23.0743 8.68042C15.1753 8.68042 8.75244 15.1033 8.75244 23.0022C8.75244 30.9016 15.1753 37.3244 23.0743 37.3244C30.9736 37.3244 37.3965 30.9016 37.3965 23.0022C37.3965 15.1033 30.9736 8.68042 23.0743 8.68042ZM23.0743 35.4072C16.2298 35.4072 10.6697 29.8374 10.6697 23.0022C10.6697 16.1671 16.2298 10.5977 23.0743 10.5977C29.9255 10.5977 35.4792 16.1514 35.4792 23.0022C35.4792 29.8531 29.9255 35.4072 23.0743 35.4072Z" fill="#E9B500"/>
<path d="M42.7838 17.7299L43.1003 12.0452C43.1224 11.6636 42.9149 11.3052 42.573 11.1345L37.5114 8.57499L34.9519 3.51333C34.7778 3.17444 34.4216 2.96811 34.0412 2.98609L28.3467 3.29315L23.6015 0.158118C23.2817 -0.0527061 22.8671 -0.0527061 22.547 0.158118L17.8017 3.29315L12.1173 2.97672C11.7354 2.95426 11.3774 3.16171 11.2066 3.50397L8.64679 8.56563L3.58551 11.1251C3.24625 11.2989 3.04029 11.655 3.05827 12.0358L3.37431 17.7206L0.239661 22.4658C0.0288369 22.7856 0.0288369 23.2001 0.239661 23.5203L3.36495 28.2749L3.04853 33.9597C3.02644 34.3413 3.23352 34.6996 3.57578 34.8704L8.63743 37.4298L11.1969 42.4915C11.3707 42.8308 11.7268 43.0367 12.1076 43.0188L17.7924 42.7023L22.5376 45.837C22.8555 46.0545 23.2742 46.0545 23.5921 45.837L28.3373 42.7023L34.0221 43.0188C34.4037 43.0408 34.7617 42.8334 34.9328 42.4915L37.4923 37.4298L42.5539 34.8704C42.8928 34.6962 43.0991 34.3405 43.0812 33.9597L42.7648 28.2749L45.8994 23.5297C46.1102 23.2099 46.1102 22.795 45.8994 22.4752L42.7838 17.7299ZM41.0006 27.4889C40.8838 27.6604 40.8295 27.8667 40.8475 28.0738L41.1444 33.4515L36.361 35.8672C36.1786 35.9586 36.0307 36.1069 35.9394 36.2892L33.5233 41.0727L28.1456 40.7757C27.9396 40.7682 27.7363 40.8214 27.5607 40.9289L23.0742 43.8913L18.5881 40.9289C18.4323 40.8236 18.2488 40.7667 18.0609 40.766H18.0129L12.6349 41.0633L10.2192 36.2795C10.1278 36.0971 9.97989 35.9492 9.79715 35.8578L5.00399 33.4515L5.30132 28.0738C5.3088 27.8679 5.25526 27.6645 5.14778 27.4889L2.18576 23.0024L5.14778 18.5159C5.26499 18.3448 5.31929 18.1381 5.30132 17.9314L5.00399 12.5533L9.78779 10.1376C9.97016 10.0463 10.1181 9.89835 10.2094 9.71599L12.6251 4.93219L18.0032 5.22951C18.2088 5.23663 18.4121 5.18345 18.5881 5.07598L23.0742 2.11395L27.5607 5.07598C27.7322 5.19319 27.9389 5.24749 28.1456 5.22951L33.5233 4.93219L35.9394 9.71599C36.0307 9.89835 36.1786 10.0463 36.361 10.1376L41.1444 12.5533L40.8475 17.9314C40.84 18.137 40.8935 18.3403 41.0006 18.5159L43.963 23.0024L41.0006 27.4889Z" fill="#E9B500"/>
</g>
<defs>
<clipPath id="clip0">
<rect width="46" height="46" fill="white"/>
</clipPath>
</defs>
</svg>
