<svg width="35" height="50" viewBox="0 0 35 50" fill="none" xmlns="http://www.w3.org/2000/svg">
<path d="M31.0721 22.4287L31.0712 22.4278C29.0903 20.8533 26.561 19.9438 23.9152 19.8547V15.7289C23.9132 15.2364 23.6634 14.771 23.2353 14.4623L27.9677 7.91355L29.2325 6.39812C29.3469 6.25718 29.4077 6.08698 29.4058 5.91274C29.4067 5.89811 29.4152 5.88579 29.4152 5.87106L29.4123 5.85835C29.411 5.83775 29.4017 5.81869 29.3986 5.79818C29.3752 5.56685 29.2409 5.35613 29.0307 5.22029L23.6484 0.363153C23.4765 0.207971 23.2425 0.120753 22.9985 0.12085H11.9985C11.7546 0.120753 11.5206 0.207971 11.3486 0.363153L5.96625 5.22039C5.75603 5.35622 5.62175 5.56705 5.59833 5.79828C5.59533 5.81878 5.58609 5.83784 5.58469 5.85854L5.58179 5.87125C5.58179 5.88607 5.59039 5.8984 5.59114 5.91293C5.58921 6.08718 5.65 6.25738 5.76441 6.39831L6.99396 7.8684L11.7615 14.4626C11.3334 14.7713 11.0837 15.2367 11.0818 15.729V19.8548C7.46006 19.9768 4.11752 21.6307 2.07286 24.3123C0.0280811 26.9939 -0.476587 30.3856 0.712466 33.4536L5.38081 45.5403C6.27617 47.8557 8.70992 49.4086 11.4443 49.4094H23.5526C26.287 49.4086 28.7208 47.8557 29.6161 45.5403L34.2845 33.4536C35.8079 29.5349 34.539 25.1797 31.0721 22.4287ZM26.4642 6.97466L21.3228 14.086H18.9217L22.672 6.69269H26.6992L26.4642 6.97466ZM22.0819 15.7289V19.8363H12.9153V15.7289H22.0819ZM22.6172 1.76383L26.2622 5.04971H22.6486L20.8152 1.76383H22.6172ZM16.2318 1.76383H17.4985H18.7653L20.5985 5.04971H14.3984L16.2318 1.76383ZM20.6581 6.69269L17.4985 12.9217L14.3389 6.69269H20.6581ZM12.3799 1.76383H14.1819L12.3485 5.04971H8.73441L12.3799 1.76383ZM8.49744 6.92932L8.29989 6.69269H12.325L16.0753 14.086H13.674L8.49744 6.92932ZM27.884 45.0028C27.2442 46.6566 25.5058 47.7658 23.5526 47.7665H11.4443C9.4912 47.7658 7.7529 46.6566 7.11298 45.0029L5.689 41.316C9.42492 39.268 14.0482 39.0055 18.0427 40.6143C21.1265 41.8118 24.4557 42.4174 27.8163 42.3925C28.1931 42.3925 28.55 42.382 28.901 42.3694L27.884 45.0028ZM32.5523 32.9161L29.5492 40.6914C25.8724 40.9536 22.1794 40.4121 18.7876 39.1133C14.3732 37.328 9.26916 37.5591 5.0782 39.7343L2.44475 32.9161C1.16536 29.6244 2.23173 25.9664 5.14416 23.6561C6.90383 22.2531 9.17731 21.4784 11.5326 21.4793H23.4645C26.5751 21.4796 29.4935 22.828 31.2977 25.0986C33.102 27.3693 33.5695 30.2818 32.5523 32.9161Z" fill="#E9B500"/>
<path d="M30.3547 27.7477C30.0384 27.6697 29.6998 27.7491 29.4667 27.9558C29.2336 28.1625 29.1416 28.4651 29.2253 28.7493C29.5218 29.7694 29.4739 30.8454 29.0875 31.8411L26.7533 37.8846C26.5877 38.3133 26.8412 38.7811 27.3196 38.9295C27.7979 39.0779 28.3199 38.8507 28.4855 38.4221L30.8197 32.3785C31.3255 31.076 31.3878 29.6681 30.9988 28.3337C30.9165 28.0492 30.6709 27.8258 30.3547 27.7477Z" fill="#E9B500"/>
<path d="M28.3163 26.2794C28.6278 26.187 28.8605 25.9525 28.9265 25.6644C28.9923 25.3763 28.8815 25.0786 28.6356 24.8837C27.2109 23.7486 25.3709 23.1217 23.4645 23.1221C22.9582 23.1221 22.5479 23.4898 22.5479 23.9435C22.5479 24.3972 22.9582 24.765 23.4645 24.765C23.8267 24.765 24.1882 24.7945 24.5445 24.8532C25.6124 25.0297 26.6059 25.4651 27.4172 26.1119C27.6619 26.308 28.0048 26.3718 28.3163 26.2794Z" fill="#E9B500"/>
</svg>
