<svg width="10" height="6" viewBox="0 0 10 6" fill="none" xmlns="http://www.w3.org/2000/svg">
<path d="M9.90008 1.23036L5.23036 5.89976C5.16364 5.96655 5.08688 6 5.00005 6C4.91322 6 4.83633 5.96655 4.76957 5.89976L0.100236 1.23036C0.0333416 1.16346 0 1.08671 0 0.999842C0 0.913013 0.0334469 0.836152 0.100236 0.769398L0.601132 0.268537C0.667921 0.201748 0.744782 0.168371 0.831611 0.168371C0.918439 0.168371 0.995301 0.201748 1.06209 0.268537L5.00005 4.20643L8.93816 0.268291C9.00491 0.201502 9.08181 0.168336 9.1685 0.168336C9.25546 0.168336 9.33233 0.201713 9.39908 0.268291L9.90005 0.769363C9.9668 0.836117 9.99997 0.913013 9.99997 0.999806C10 1.08671 9.96684 1.16357 9.90008 1.23036Z" fill="#E9B500"/>
</svg>
