<svg width="37" height="37" viewBox="0 0 37 37" fill="none" xmlns="http://www.w3.org/2000/svg">
<path d="M18.2927 36.0836C28.2569 36.0836 36.3345 28.006 36.3345 18.0418C36.3345 8.07759 28.2569 0 18.2927 0C8.32845 0 0.250854 8.07759 0.250854 18.0418C0.250854 28.006 8.32845 36.0836 18.2927 36.0836Z" fill="#007AB9"/>
<path d="M29.0725 19.4937V26.932H24.76V19.9922C24.76 18.2497 24.1374 17.0598 22.5759 17.0598C21.3844 17.0598 20.6765 17.8609 20.3639 18.6366C20.2504 18.9139 20.2211 19.2988 20.2211 19.6877V26.9317H15.9083C15.9083 26.9317 15.9662 15.178 15.9083 13.9614H20.2214V15.7994C20.2127 15.8139 20.2005 15.828 20.1928 15.8418H20.2214V15.7994C20.7945 14.9175 21.8166 13.6568 24.1081 13.6568C26.9454 13.6568 29.0725 15.5106 29.0725 19.4937ZM11.3967 7.70923C9.92146 7.70923 8.9563 8.6776 8.9563 9.9499C8.9563 11.1952 9.89348 12.1915 11.3401 12.1915H11.3681C12.8723 12.1915 13.8075 11.1952 13.8075 9.9499C13.7789 8.6776 12.8722 7.70923 11.3967 7.70923ZM9.21262 26.932H13.5238V13.9614H9.21262V26.932Z" fill="#F1F2F2"/>
</svg>
