<svg width="28" height="28" viewBox="0 0 28 28" fill="none" xmlns="http://www.w3.org/2000/svg">
<path d="M5.63889 12.1256C7.87889 16.5278 11.48 20.1289 15.89 22.3689L19.3122 18.9389C19.74 18.5111 20.3544 18.3867 20.8911 18.5578C22.6333 19.1333 24.5078 19.4444 26.4444 19.4444C27.3078 19.4444 28 20.1367 28 21V26.4444C28 27.3078 27.3078 28 26.4444 28C11.8378 28 0 16.1622 0 1.55556C0 0.692222 0.7 0 1.55556 0H7C7.86333 0 8.55556 0.692222 8.55556 1.55556C8.55556 3.49222 8.86667 5.36667 9.44222 7.10889C9.61333 7.64556 9.48889 8.26 9.06111 8.68778L5.63889 12.1256Z" fill="#E9B500"/>
</svg>
