<svg width="37" height="37" viewBox="0 0 37 37" fill="none" xmlns="http://www.w3.org/2000/svg">
<path d="M18.0418 36.0836C28.006 36.0836 36.0836 28.006 36.0836 18.0418C36.0836 8.07759 28.006 0 18.0418 0C8.07759 0 0 8.07759 0 18.0418C0 28.006 8.07759 36.0836 18.0418 36.0836Z" fill="#CB2027"/>
<path d="M19.498 24.1595C18.1341 24.054 17.561 23.3777 16.4913 22.7283C15.9034 25.8129 15.1849 28.7698 13.0568 30.3145C12.3991 25.6525 14.021 22.1507 14.7742 18.4339C13.4903 16.2726 14.9286 11.9225 17.6365 12.9944C20.9694 14.3124 14.751 21.0306 18.9256 21.8696C23.2837 22.7457 25.0629 14.3076 22.3601 11.5629C18.455 7.60035 10.9933 11.4729 11.9109 17.1455C12.1344 18.5323 13.5675 18.9533 12.4833 20.8669C9.9841 20.3134 9.2386 18.3422 9.33444 15.7143C9.48914 11.4127 13.1996 8.40084 16.9213 7.98404C21.6281 7.45723 26.0457 9.71238 26.6555 14.1397C27.3415 19.1366 24.5306 24.548 19.498 24.1595Z" fill="#F1F2F2"/>
</svg>
