<svg width="37" height="37" viewBox="0 0 37 37" fill="none" xmlns="http://www.w3.org/2000/svg">
<path d="M18.1254 36.0836C28.0896 36.0836 36.1672 28.006 36.1672 18.0418C36.1672 8.07759 28.0896 0 18.1254 0C8.16121 0 0.0836182 8.07759 0.0836182 18.0418C0.0836182 28.006 8.16121 36.0836 18.1254 36.0836Z" fill="#55ACEE"/>
<path d="M29.1766 12.9662C28.3895 13.3149 27.5545 13.5435 26.6995 13.6444C27.6002 13.1058 28.2743 12.258 28.596 11.259C27.7495 11.7613 26.8233 12.1152 25.8575 12.3052C25.4539 11.8748 24.9662 11.5319 24.4246 11.2977C23.8829 11.0635 23.299 10.9431 22.7089 10.9439C20.3277 10.9439 18.3964 12.8751 18.3964 15.2564C18.3964 15.5944 18.4347 15.9234 18.5087 16.2392C14.9246 16.0594 11.7468 14.3426 9.61963 11.7328C9.23605 12.3909 9.03448 13.1393 9.03558 13.9011C9.03558 15.3969 9.79748 16.7174 10.954 17.4906C10.2691 17.4695 9.59932 17.2843 9.00085 16.9506L9.00053 17.0053C9.00053 19.0948 10.4877 20.8376 12.4601 21.2335C12.0899 21.3345 11.7079 21.3854 11.3242 21.385C11.0457 21.385 10.7758 21.3583 10.5127 21.3081C11.0614 23.021 12.6537 24.2679 14.5413 24.303C13.0135 25.502 11.1269 26.1522 9.18481 26.149C8.83747 26.149 8.49334 26.1288 8.15662 26.0886C10.1281 27.3561 12.4229 28.0288 14.7667 28.0263C22.699 28.0263 27.0369 21.4551 27.0369 15.7558C27.0369 15.569 27.0327 15.3827 27.0243 15.1981C27.8689 14.5883 28.5978 13.8324 29.1766 12.9662Z" fill="#F1F2F2"/>
</svg>
